<?xml version="1.0" standalone="no"?>
<!DOCTYPE svg PUBLIC "-//W3C//DTD SVG 20010904//EN"
 "http://www.w3.org/TR/2001/REC-SVG-20010904/DTD/svg10.dtd">
<svg version="1.0" xmlns="http://www.w3.org/2000/svg"
 width="960.000000pt" height="998.000000pt" viewBox="0 0 960.000000 998.000000"
 preserveAspectRatio="xMidYMid meet">
<metadata>
Created by potrace 1.16, written by Peter Selinger 2001-2019
</metadata>
<g transform="translate(0.000000,998.000000) scale(0.100000,-0.100000)"
fill="#000000" stroke="none">
<path d="M2235 9778 c-328 -33 -740 -166 -994 -321 -188 -116 -431 -314 -586
-479 -646 -689 -830 -1671 -479 -2558 127 -319 321 -610 579 -865 297 -295
573 -454 1140 -660 495 -179 782 -328 1119 -584 144 -108 275 -222 542 -473
l236 -221 -5 -576 c-5 -611 -10 -694 -57 -861 -73 -258 -326 -515 -624 -635
-183 -74 -342 -101 -551 -92 -331 14 -600 129 -820 351 -149 149 -232 297
-269 477 -22 107 -36 313 -36 532 l0 187 -696 0 -696 0 6 -118 c16 -262 37
-523 52 -632 60 -448 214 -797 496 -1125 438 -510 993 -815 1653 -911 171 -25
515 -25 690 0 326 46 650 155 915 307 252 144 375 240 679 533 118 114 217
203 221 199 274 -329 342 -398 532 -539 265 -197 600 -363 873 -434 209 -53
334 -65 705 -65 300 0 351 3 490 24 294 44 464 98 745 236 307 151 501 289
745 534 171 171 267 290 376 465 425 677 500 1512 203 2259 -125 313 -279 546
-511 773 -373 364 -831 618 -1573 874 -403 139 -710 294 -1042 527 -238 167
-472 384 -610 568 -89 117 -109 159 -133 280 -77 376 -35 958 86 1199 105 209
269 380 464 485 252 134 575 171 890 101 336 -75 597 -275 745 -570 110 -220
145 -412 145 -807 l0 -193 695 0 695 0 0 38 c0 52 -37 556 -50 677 -44 411
-118 623 -329 942 -204 309 -471 574 -762 754 -293 182 -694 322 -1104 385
-151 23 -458 23 -620 0 -504 -72 -948 -256 -1335 -554 -47 -36 -178 -160 -293
-275 l-208 -210 -217 215 c-119 118 -260 249 -312 290 -511 407 -1180 609
-1805 546z m245 -1219 c459 -42 780 -212 975 -513 95 -148 171 -304 385 -791
298 -679 530 -1026 1019 -1527 273 -279 440 -425 652 -567 223 -151 470 -264
811 -372 390 -124 685 -253 968 -424 446 -269 788 -628 889 -932 53 -159 66
-275 66 -583 -1 -290 -11 -389 -57 -540 -48 -157 -175 -346 -353 -525 -321
-324 -578 -430 -1030 -428 -447 2 -683 100 -1000 418 -146 145 -268 306 -335
440 -46 91 -58 132 -130 435 -96 404 -130 532 -177 670 -317 939 -958 1683
-1854 2154 -200 105 -370 175 -694 286 -496 169 -696 262 -908 423 -430 324
-659 818 -596 1284 57 428 315 771 737 978 231 113 370 139 632 114z"/>
</g>
</svg>
